<svg xmlns="http://www.w3.org/2000/svg" viewBox="0 0 800 600" role="img" aria-labelledby="heroTitle">
  <title id="heroTitle">DRIX fashion hero illustration</title>
  <defs>
    <linearGradient id="grad" x1="0%" y1="0%" x2="100%" y2="100%">
      <stop offset="0%" stop-color="#1d4ed8"/>
      <stop offset="100%" stop-color="#0ea5e9"/>
    </linearGradient>
    <filter id="glow" x="-20%" y="-20%" width="140%" height="140%">
      <feGaussianBlur stdDeviation="18" result="blur"/>
      <feMerge>
        <feMergeNode in="blur"/>
        <feMergeNode in="SourceGraphic"/>
      </feMerge>
    </filter>
  </defs>
  <rect width="800" height="600" rx="50" fill="#111827"/>
  <circle cx="620" cy="150" r="110" fill="url(#grad)" filter="url(#glow)" opacity="0.75"/>
  <path d="M210 520c-28-90 10-200 70-220 60-20 120 10 170 40 58 33 120 15 152-16 65-62 96-176 70-246-28-80-108-90-172-70-44 14-65 55-108 74-52 23-131 4-167 70-36 67-18 180 7 238z" fill="#fff" opacity="0.08"/>
  <path d="M245 499c32-62 57-114 135-137 45-13 115-5 171 5 55 10 86 30 124 58 22 16 46 9 56-14 16-35 32-80 42-111 23-68 32-112-18-151-51-38-119-36-176-12-44 19-79 55-123 68-26 7-64 12-88 28-45 29-70 93-86 160-12 50-19 102 1 135 12 23 30 35 47 18z" fill="#fff" opacity="0.12"/>
  <path d="M160 460c40-70 90-120 150-130 42-8 95 2 138 16 40 13 69 30 111 20 38-10 56-47 70-78 22-53 27-98 3-132-26-36-69-44-106-30-28 10-50 34-84 54-46 28-110 36-158 18-56-22-111-24-140 20-25 40-12 102 26 152 36 48 84 76 140 80z" fill="url(#grad)" opacity="0.9"/>
  <circle cx="190" cy="210" r="20" fill="#f59e0b"/>
  <circle cx="240" cy="120" r="16" fill="#ec4899"/>
  <circle cx="520" cy="340" r="18" fill="#a78bfa"/>
</svg>
