<?xml version="1.0" encoding="UTF-8"?>
<svg id="Layer_1" data-name="Layer 1" xmlns="http://www.w3.org/2000/svg" viewBox="0 0 861.55 318.57">
  <path d="m36.42,47.18c62.52.2,125.05.09,187.57.12,12.38,12.67,24.68,25.42,37.23,37.93,1.63,1.63,3.43,3.54,3.19,6.06.05,43.32-.03,86.65.06,129.98.2,1.71-1.32,2.82-2.35,3.93-12.88,12.14-25.26,24.81-38.3,36.79-62.49.42-124.98.01-187.47.18.02-50.1.01-100.2.01-150.3,19.52-.02,39.04-.02,58.56.01.26,33.82.06,67.65.13,101.48,30.71,0,61.43,0,92.14,0,3.22-.15,6.52.38,9.69-.28,3.91-3.38,7.22-7.42,11.29-10.64.09-31.07.1-62.15,0-93.22.3-1.44-1.1-2.22-1.9-3.12-3.31-3.01-6.19-6.45-9.5-9.46-23.53-.33-47.07.03-70.61-.09-29.89.05-59.78-.32-89.66.18-.29-16.51-.12-33.03-.08-49.55Z" style="fill: #fff; stroke-width: 0px;"/>
  <path d="m292.58,47.35c53.52-.1,107.04-.05,160.56-.04,8.12.18,16.26-.17,24.38.25,2.6,3.76,6.12,6.72,9.22,10.04,7.94,8.4,15.75,16.91,24.03,24.97,1.29,1.36,3.02,2.77,2.88,4.85.08,16.64.11,33.28.01,49.91.01,3.59-3.72,5.3-5.74,7.74-8.71,9.69-17.95,18.88-27.07,28.18,10.79,11.48,21.5,23.04,32.57,34.26.38,18.2.12,36.4.18,54.61-18.79-.02-37.58,0-56.36,0-.23-12.15.43-24.39-.32-36.47-10.98-10.41-20.86-21.91-31.6-32.55-3.3-3.37-6.46-6.87-9.65-10.33-16.67-.44-33.35-.34-50.02-.16-.36-17.25-.09-34.51-.14-51.76,26.21.34,52.42-.02,78.62.25,1.57-.05,3.45.26,4.64-1.05,2.83-2.68,5.74-5.27,8.73-7.77.15-5.06-.09-10.11-.15-15.17-3.57-3.16-6.84-6.64-9.77-10.4-51.63-.43-103.26-.05-154.89-.17-.21-16.39,0-32.79-.11-49.18Z" style="fill: #fff; stroke-width: 0px;"/>
  <path d="m536.85,47.3h55.76c0,71.63.02,143.25-.01,214.88-18.6-.16-37.2-.03-55.8-.07.09-71.6.06-143.2.05-214.81Z" style="fill: #fff; stroke-width: 0px;"/>
  <path d="m617.49,47.31c19.48-.02,38.96-.01,58.44,0,.13,10.93,0,21.86.07,32.79,17.01,14.89,33.61,30.23,50.57,45.19,15.77-13.73,30.89-28.18,46.39-42.2,1.21-1.41,3.2-2.63,3.14-4.7.14-10.39.23-20.77.01-31.15,20.53.14,41.05,0,61.58.09.01,15.91.08,31.82.02,47.73-22.78,20.77-45.9,41.17-69.11,61.46,21.35,18.43,42.73,36.83,63.88,55.49,1.83,1.9,5.32,3.17,5.15,6.26.29,14.63-.21,29.26.19,43.89-20.1-.05-40.2-.15-60.29.11.09-9.94.42-19.88-.17-29.81-16.56-14.98-33.51-29.52-49.9-44.7-17.11,14.91-34.28,29.78-51.18,44.91-.82,9.76-.14,19.68-.3,29.5-19.6-.04-39.2-.16-58.79.08.16-15.53-.4-31.07.27-46.6,2.88-1.72,5.17-4.17,7.65-6.4,16.13-13.82,32.14-27.78,48.04-41.87,4.12-3.7,8.71-6.87,12.67-10.76-22.93-20.32-45.86-40.66-68.25-61.58-.05-15.91.04-31.82-.08-47.73Z" style="fill: #fff; stroke-width: 0px;"/>
  <path d="m292.54,262.1c.21-50.08-.11-100.16.08-150.24,19.26.01,38.53,0,57.8.01.15,50.1-.11,100.2.06,150.3-19.31-.07-38.62-.05-57.94-.07Z" style="fill: #fff; stroke-width: 0px;"/>
</svg>
